# xmcd
#
# Track frame offsets:
#	150
#	11163
#	37618
#	56975
#	67126
#	92006
#	105004
#	132037
#	172806
#	190716
#	208173
#	241781
#	258200
#	277403
#
# Disc length: 4033
#
# Revision: 2
# Processed by: cddbd v1.5.1PL0 Copyright (c) Steve Scherf et al.
# Submitted via: CDex 1.50
# Normalized: r0:DSETVAR1,TDELIM( - ),TSWAP
#
DISCID=ba0fbf0e
DTITLE=Various Artist - Ken Burns Jazz - Disc 5
DYEAR=2000
DGENRE=Jazz
TTITLE0=Louis Armstrong - Hello, Dolly!
TTITLE1=Stan Getz And Charlie Byrd - Desifinado
TTITLE2=John Coltrane And Duke Eliington - In A Sentimental Mood
TTITLE3=Duke Ellington And His Orchestra - Tourist Point Of View
TTITLE4=The Miles Davis Quintet - E.S.P.
TTITLE5=Miles Davis - Spanish Key (Single Version)
TTITLE6=Weather Report - Birdland
TTITLE7=Grover Washington, Jr. - Mister Majic
TTITLE8=Herbie Hancock - Rockit
TTITLE9=Grover Washington, Jr. - Mister Majic
TTITLE10=Ron Carter And M.C. Solaar - Un Ange En Danger
TTITLE11=Wynton Marsalis - Soon All Will Know
TTITLE12=Cassandra Wilson - Death Letter
TTITLE13=The Lincoln Jazz Center Orchestra - Take The A Train
EXTD=YEAR: 2000
EXTT0=
EXTT1=
EXTT2=
EXTT3=
EXTT4=
EXTT5=
EXTT6=
EXTT7=
EXTT8=
EXTT9=
EXTT10=
EXTT11=
EXTT12=
EXTT13=
PLAYORDER=
